<svg width="28" height="29" viewBox="0 0 28 29" fill="none" xmlns="http://www.w3.org/2000/svg">
<path d="M12.0367 19.374C11.1284 23.2834 10.0215 27.031 6.7389 28.9885C5.72699 23.0804 8.22567 18.6444 9.38781 13.9343C7.40717 11.1946 9.62611 5.68398 13.7998 7.04247C18.937 8.71185 9.35155 17.2234 15.7856 18.2881C22.5046 19.3967 25.2468 8.70617 21.08 5.22973C15.0621 0.207402 3.55985 5.1119 4.97583 12.3019C5.31946 14.0592 7.52804 14.5916 5.85823 17.0176C2.00573 16.3163 0.855681 13.8179 1.00419 10.4877C1.24248 5.03667 6.95993 1.22237 12.6964 0.692884C19.9507 0.0242823 26.7594 2.88323 27.7005 8.49182C28.7591 14.8244 24.4265 21.6836 16.668 21.1896C14.5648 21.0547 13.6841 20.1973 12.0367 19.374Z" fill="url(#paint0_linear_1_17796)"/>
<defs>
<linearGradient id="paint0_linear_1_17796" x1="25.8925" y1="-1.20146" x2="-2.226" y2="18.9766" gradientUnits="userSpaceOnUse">
<stop stop-color="#E89B93"/>
<stop offset="1" stop-color="#E89B93"/>
</linearGradient>
</defs>
</svg>
